<?xml version="1.0" encoding="UTF-8" standalone="no"?>
<svg
   id="svg"
   version="1.1"
   width="400"
   height="363.6363636363636"
   style="display: block;"
   sodipodi:docname="logo_min.svg"
   inkscape:version="1.3.2 (091e20e, 2023-11-25, custom)"
   inkscape:export-filename="logo_min.png"
   inkscape:export-xdpi="96"
   inkscape:export-ydpi="96"
   xmlns:inkscape="http://www.inkscape.org/namespaces/inkscape"
   xmlns:sodipodi="http://sodipodi.sourceforge.net/DTD/sodipodi-0.dtd"
   xmlns="http://www.w3.org/2000/svg"
   xmlns:svg="http://www.w3.org/2000/svg">
  <defs
     id="defs1" />
  <sodipodi:namedview
     id="namedview1"
     pagecolor="#ffffff"
     bordercolor="#000000"
     borderopacity="0.25"
     inkscape:showpageshadow="2"
     inkscape:pageopacity="0.0"
     inkscape:pagecheckerboard="0"
     inkscape:deskcolor="#d1d1d1"
     inkscape:zoom="2.2577501"
     inkscape:cx="199.97785"
     inkscape:cy="181.81818"
     inkscape:window-width="1920"
     inkscape:window-height="1017"
     inkscape:window-x="-8"
     inkscape:window-y="-8"
     inkscape:window-maximized="1"
     inkscape:current-layer="svgg" />
  <g
     id="svgg">
    <path
       id="path0"
       d="M137.105 69.887 C 136.697 70.324,136.364 70.999,136.364 71.386 C 136.364 73.267,137.641 80.726,138.422 83.401 C 138.568 83.903,136.791 83.135,131.474 80.401 C 123.618 76.361,122.457 76.056,120.893 77.620 C 119.372 79.140,119.285 78.821,125.666 94.994 C 128.076 101.101,128.143 100.466,124.803 103.091 C 120.096 106.791,116.765 111.719,115.464 116.909 C 114.830 119.436,115.880 118.347,99.774 133.175 C 90.151 142.034,89.915 143.628,97.086 151.333 C 103.673 158.411,110.485 162.450,115.091 162.009 C 126.429 160.923,136.349 157.098,145.218 150.392 C 151.394 145.723,152.874 144.017,148.419 146.705 C 138.598 152.628,132.531 154.639,122.567 155.271 C 113.927 155.819,112.182 155.127,107.398 149.259 C 103.224 144.140,103.064 143.453,105.359 140.545 C 106.307 139.345,107.657 137.618,108.359 136.706 C 109.062 135.795,111.682 132.474,114.182 129.328 C 119.986 122.022,120.350 121.411,120.358 118.962 C 120.375 113.418,124.982 104.823,129.448 102.004 C 131.899 100.457,136.854 95.371,134.979 96.328 C 132.953 97.362,132.944 97.358,132.243 95.134 C 131.904 94.057,130.983 91.644,130.197 89.770 C 128.509 85.744,128.515 85.738,132.293 87.623 C 135.754 89.350,137.110 89.469,138.419 88.160 C 138.931 87.648,139.385 87.279,139.428 87.342 C 139.471 87.404,139.870 88.436,140.316 89.636 C 142.357 95.134,147.367 102.600,152.640 108.000 L 155.658 111.091 152.783 107.031 C 145.557 96.826,142.637 89.434,141.937 79.577 L 141.698 76.201 142.758 76.889 C 144.720 78.163,146.346 79.149,150.000 81.281 C 164.826 89.932,173.419 97.849,178.374 107.425 C 180.467 111.470,180.861 111.635,179.617 107.943 C 176.798 99.573,170.059 90.888,159.636 82.190 C 146.948 71.601,139.365 67.461,137.105 69.887 M186.443 112.766 C 225.581 160.543,231.216 205.380,203.829 251.091 C 196.787 262.845,187.781 274.667,177.664 285.435 C 170.806 292.735,170.712 292.878,175.273 289.086 C 187.717 278.736,207.110 257.596,211.241 249.877 C 212.011 248.439,212.043 249.186,211.415 253.859 C 208.167 278.040,214.795 305.025,229.336 326.812 C 231.370 329.861,232.925 332.422,232.790 332.504 C 232.656 332.586,231.236 332.850,229.636 333.091 C 222.260 334.200,218.544 336.286,218.547 339.316 C 218.553 343.560,219.950 345.056,225.146 346.378 C 232.655 348.288,238.609 348.837,238.815 347.636 C 239.006 346.520,238.223 346.134,234.695 345.607 C 224.228 344.044,220.518 342.331,221.253 339.404 C 221.587 338.071,226.698 336.542,233.742 335.667 C 238.466 335.079,238.504 334.516,234.238 328.210 C 225.034 314.603,219.927 302.876,216.965 288.545 C 213.013 269.422,215.066 246.340,222.055 231.328 C 223.700 227.793,227.138 219.243,227.999 216.545 C 230.767 207.871,241.089 193.651,250.199 185.963 C 257.564 179.748,275.814 168.783,276.932 169.902 C 277.037 170.007,275.926 172.363,274.462 175.137 C 269.761 184.052,269.765 184.023,272.582 187.684 C 274.740 190.488,278.000 193.166,282.728 196.018 C 289.118 199.871,293.338 204.316,297.386 211.455 C 300.676 217.255,300.627 216.906,298.600 220.234 C 294.232 227.406,294.893 226.846,289.818 227.656 C 283.821 228.613,276.984 230.930,272.933 233.376 L 270.775 234.679 268.388 234.029 C 267.074 233.671,263.925 232.914,261.389 232.347 C 252.339 230.322,249.099 228.284,247.022 223.309 C 245.790 220.358,245.265 220.354,245.823 223.299 C 246.677 227.803,248.922 230.787,253.506 233.510 C 256.798 235.466,263.307 238.195,265.391 238.493 C 267.075 238.734,267.076 238.735,267.493 240.616 C 268.664 245.888,271.155 247.783,286.000 254.698 L 289.636 256.392 295.091 256.287 L 300.545 256.182 296.962 254.047 C 294.991 252.874,290.491 250.535,286.962 248.851 C 275.671 243.462,272.178 241.084,273.872 239.938 C 277.653 237.380,283.540 235.414,291.636 234.008 C 298.132 232.879,297.832 233.097,302.453 226.148 C 307.861 218.014,307.893 217.747,304.328 210.502 C 299.159 199.999,295.163 195.425,285.636 189.104 C 280.535 185.720,278.181 183.827,278.183 183.110 C 278.183 182.900,280.059 179.083,282.352 174.628 C 287.722 164.199,288.179 162.245,285.642 160.583 C 282.916 158.797,265.517 166.678,254.909 174.503 C 245.223 181.648,238.388 188.448,233.096 196.204 L 230.909 199.409 230.906 197.432 C 230.885 183.119,223.250 160.666,212.699 143.890 C 205.438 132.344,193.363 117.635,185.011 110.163 L 182.390 107.818 186.443 112.766 M130.545 118.333 C 124.186 119.978,123.063 120.880,124.550 123.149 C 125.427 124.488,125.854 124.522,130.469 123.625 C 136.426 122.468,136.635 122.357,133.900 121.812 C 130.922 121.217,130.906 121.122,133.462 119.114 C 136.560 116.681,136.742 116.730,130.545 118.333 M156.542 153.614 C 161.262 161.609,159.345 169.151,150.650 176.791 C 145.022 181.736,140.000 186.734,140.000 187.391 C 140.000 187.680,139.729 188.756,139.398 189.781 L 138.795 191.646 137.051 191.415 C 135.572 191.219,135.058 191.329,133.670 192.143 C 132.770 192.670,131.903 193.061,131.744 193.010 C 131.406 192.903,129.843 193.503,126.545 195.005 C 125.245 195.598,122.218 196.948,119.818 198.005 C 117.418 199.063,112.264 201.430,108.364 203.266 C 104.464 205.102,100.291 207.037,99.091 207.566 C 94.028 209.798,65.655 224.279,57.273 228.909 C 52.273 231.671,46.055 235.108,43.455 236.548 C 38.267 239.420,30.536 243.841,26.000 246.528 C 24.400 247.477,21.332 249.288,19.182 250.553 L 15.273 252.854 15.273 254.609 L 15.273 256.364 17.702 256.364 C 19.897 256.364,20.344 256.228,22.338 254.962 C 23.552 254.191,27.947 251.613,32.105 249.234 C 36.263 246.855,41.090 244.079,42.833 243.064 C 56.551 235.072,80.350 222.639,101.636 212.343 C 111.801 207.427,127.324 200.412,128.909 200.019 C 129.509 199.870,130.368 199.631,130.818 199.486 C 131.916 199.134,131.862 199.722,130.682 200.981 C 128.142 203.693,126.675 206.545,126.370 209.367 C 126.222 210.732,125.880 211.884,125.516 212.245 C 125.182 212.576,124.582 213.287,124.182 213.825 C 123.782 214.364,123.373 214.794,123.273 214.782 C 122.654 214.708,120.655 216.328,120.219 217.257 C 116.202 225.798,113.875 240.887,114.796 252.419 C 115.021 255.233,114.989 256.477,114.678 256.965 C 114.264 257.617,114.530 260.992,115.592 268.545 L 115.899 270.727 115.987 268.727 C 116.075 266.744,116.080 266.755,116.599 270.000 C 119.579 288.640,123.506 305.352,129.288 324.000 C 132.368 333.933,136.639 346.269,136.710 345.438 C 136.742 345.069,135.240 338.396,134.164 334.123 C 129.806 316.815,125.994 291.584,124.753 271.818 C 124.124 261.805,124.934 232.901,126.002 227.273 C 129.068 211.114,138.188 194.711,152.697 179.258 C 161.475 169.911,162.980 160.127,156.723 153.091 L 155.267 151.455 156.542 153.614 M128.159 202.636 L 127.091 203.818 128.273 202.750 C 129.374 201.755,129.622 201.455,129.341 201.455 C 129.278 201.455,128.746 201.986,128.159 202.636 M281.553 203.240 C 278.105 203.581,278.067 203.697,280.882 205.271 C 283.534 206.754,283.600 206.882,282.506 208.419 C 281.434 209.924,281.737 209.990,284.592 208.874 C 287.636 207.684,288.485 206.940,288.485 205.457 C 288.485 203.294,286.718 202.729,281.553 203.240 M185.540 284.037 C 178.543 300.385,174.380 316.923,175.596 323.532 C 176.342 327.582,177.841 333.729,179.168 338.182 C 179.854 340.482,180.800 343.673,181.271 345.273 C 183.063 351.366,183.300 351.804,184.878 351.934 L 186.283 352.050 186.056 350.634 C 185.764 348.803,185.402 337.128,185.287 325.818 C 185.238 320.918,185.071 313.718,184.917 309.818 C 184.611 302.099,184.956 296.174,186.224 287.365 C 187.131 281.068,187.027 280.561,185.540 284.037 M158.092 293.546 C 155.797 297.050,151.404 307.324,150.046 312.364 C 145.671 328.611,145.740 332.579,150.660 347.273 L 152.182 351.818 154.246 351.926 L 156.310 352.035 156.385 342.654 C 156.491 329.301,156.485 324.607,156.348 314.727 C 156.221 305.520,156.519 302.512,158.215 295.869 C 158.999 292.798,158.968 292.210,158.092 293.546 M246.560 345.983 C 245.549 347.200,246.246 347.794,249.435 348.431 C 256.734 349.889,265.016 350.816,273.727 351.148 L 280.000 351.387 280.000 349.748 L 280.000 348.109 271.909 347.892 C 264.472 347.693,254.286 346.757,249.496 345.833 C 247.025 345.356,247.083 345.353,246.560 345.983 "
       stroke="none"
       fill="#ffffff"
       fill-rule="evenodd" />
    <path
       id="path1"
       d=""
       stroke="none"
       fill="#0055c6"
       fill-rule="evenodd" />
    <path
       id="path2"
       d=""
       stroke="none"
       fill="#005ee4"
       fill-rule="evenodd" />
    <path
       id="path3"
       d=""
       stroke="none"
       fill="#0064d3"
       fill-rule="evenodd" />
    <path
       id="path4"
       d="M116.000 52.909 L 116.000 100.727 65.636 100.727 L 15.273 100.727 15.273 176.182 C 15.273 217.682,15.405 251.636,15.567 251.636 C 15.729 251.636,16.833 251.046,18.021 250.324 C 19.210 249.603,21.818 248.073,23.818 246.925 C 25.818 245.778,31.300 242.627,36.000 239.924 C 65.970 222.687,96.895 207.139,130.000 192.663 C 131.800 191.876,134.009 190.898,134.909 190.490 C 136.035 189.979,137.931 188.299,140.984 185.105 C 143.425 182.552,147.353 178.816,149.711 176.802 C 160.239 167.818,161.259 158.935,152.779 150.091 C 150.211 147.412,150.355 146.900,153.108 148.922 C 163.765 156.744,163.736 168.703,153.034 179.893 C 143.914 189.427,136.880 199.630,132.274 210.000 C 127.979 219.669,126.273 226.979,125.950 237.091 C 125.838 240.591,125.620 245.336,125.465 247.636 C 125.105 253.001,125.298 269.594,125.798 276.182 C 126.327 283.150,126.539 285.718,126.745 287.636 C 128.615 305.016,132.643 326.484,137.765 346.364 L 139.171 351.818 145.222 351.918 C 151.931 352.028,151.737 352.109,150.699 349.625 C 148.723 344.895,145.820 332.776,145.819 329.253 C 145.818 326.795,148.485 314.582,150.051 309.868 C 152.367 302.900,158.526 290.545,159.685 290.545 C 160.106 290.545,160.104 290.558,159.294 293.758 C 157.104 302.404,156.520 309.277,157.072 319.880 C 157.362 325.456,157.428 330.540,157.248 333.559 C 156.946 338.622,156.988 351.176,157.309 351.695 C 157.413 351.863,163.210 352.000,170.191 352.000 L 182.885 352.000 181.665 348.455 C 180.230 344.282,177.583 335.576,176.883 332.727 C 174.021 321.081,173.975 319.546,176.197 309.636 C 177.745 302.731,182.139 290.011,185.603 282.411 C 187.072 279.188,187.071 279.189,182.899 283.082 C 172.877 292.435,160.779 301.358,169.182 293.199 C 199.392 263.866,216.659 233.223,219.446 204.000 C 220.403 193.958,220.463 192.347,220.045 187.788 C 217.569 160.765,204.040 132.927,180.843 107.122 L 179.236 105.336 179.940 107.122 C 180.893 109.543,181.889 114.584,181.746 116.265 C 181.639 117.531,181.551 117.386,180.598 114.378 C 176.397 101.112,167.656 92.251,146.909 80.224 C 141.994 77.375,142.217 77.188,143.081 83.440 C 144.362 92.704,148.270 100.773,156.184 110.497 C 160.541 115.850,160.123 116.096,155.020 111.182 C 149.090 105.471,143.655 98.448,141.511 93.727 C 139.005 88.206,139.315 88.657,138.445 89.266 C 137.094 90.212,135.030 89.949,132.438 88.499 L 130.080 87.180 130.326 88.160 C 130.461 88.700,131.244 90.767,132.065 92.755 L 133.557 96.369 135.779 95.138 C 139.924 92.840,140.994 93.063,137.727 95.544 C 135.144 97.506,133.079 99.504,133.352 99.776 C 133.475 99.899,133.319 100.000,133.005 100.000 C 132.691 100.000,131.915 100.614,131.281 101.364 C 130.646 102.114,130.244 102.482,130.387 102.182 C 131.008 100.879,125.987 106.224,124.580 108.364 C 122.284 111.854,120.727 116.846,120.727 120.716 C 120.727 121.833,120.103 122.831,116.509 127.468 C 111.638 133.751,111.590 133.812,107.472 139.025 C 103.818 143.649,103.929 143.075,106.065 146.323 C 110.173 152.569,113.594 154.910,118.611 154.907 C 130.469 154.902,140.703 151.450,152.280 143.549 C 154.857 141.791,154.903 142.626,152.364 145.068 C 141.385 155.626,130.784 160.705,115.902 162.538 C 110.801 163.167,104.922 160.214,98.554 153.826 C 89.653 144.896,89.335 141.711,96.680 135.032 C 98.806 133.099,101.621 130.521,102.936 129.304 C 106.889 125.645,108.771 123.936,111.681 121.358 C 114.030 119.277,114.489 118.681,114.685 117.455 C 115.521 112.227,119.988 105.775,125.772 101.442 L 126.999 100.523 125.647 96.898 C 124.904 94.904,123.165 90.424,121.784 86.943 C 118.877 79.616,118.790 78.955,120.509 77.236 C 122.458 75.288,123.348 75.465,130.790 79.284 C 134.309 81.091,137.236 82.521,137.294 82.463 C 137.353 82.405,137.105 80.886,136.745 79.088 C 134.283 66.795,137.362 65.194,148.727 72.858 C 151.405 74.664,159.462 80.968,161.107 82.545 C 161.420 82.845,162.703 83.991,163.958 85.091 C 169.200 89.685,174.759 96.442,177.449 101.491 C 178.372 103.225,179.383 104.433,181.091 105.845 C 191.232 114.229,214.909 142.588,214.909 146.350 C 214.909 146.450,215.481 147.425,216.180 148.518 C 217.626 150.778,222.705 161.174,224.099 164.727 C 228.437 175.779,229.942 181.824,231.524 194.545 L 231.818 196.909 233.419 194.545 C 242.363 181.340,261.287 167.359,279.402 160.574 C 285.381 158.335,287.636 159.277,287.636 164.015 C 287.636 165.598,287.110 166.841,283.240 174.398 L 278.843 182.983 279.876 184.068 C 280.444 184.666,282.300 186.060,284.000 187.168 C 285.700 188.276,287.987 189.775,289.082 190.500 C 297.016 195.753,307.405 211.006,307.439 217.455 L 307.451 219.818 304.180 224.845 C 298.449 233.653,298.218 233.868,293.996 234.363 C 286.667 235.220,275.797 238.632,274.691 240.422 C 274.131 241.328,277.507 243.439,287.089 248.176 C 292.490 250.846,297.973 253.739,299.273 254.606 L 301.636 256.182 294.864 256.281 L 288.091 256.379 281.954 253.605 C 271.499 248.878,267.662 245.612,266.767 240.676 C 266.542 239.435,266.425 239.337,264.883 239.106 C 258.443 238.140,248.585 231.877,246.342 227.327 C 245.054 224.712,244.509 217.455,245.601 217.455 C 246.280 217.455,246.286 217.472,246.893 220.714 C 247.653 224.773,249.856 227.620,253.474 229.218 C 255.392 230.065,262.546 232.000,263.758 232.000 C 264.070 232.000,265.649 232.418,267.267 232.929 L 270.207 233.858 274.649 231.687 C 279.262 229.433,283.134 228.226,290.081 226.876 L 294.163 226.084 296.789 221.876 C 299.838 216.992,299.813 217.240,297.659 213.257 C 293.430 205.435,289.076 200.802,281.464 196.023 C 274.672 191.758,270.360 187.300,269.930 184.097 C 269.765 182.859,270.103 181.988,272.689 177.005 C 274.310 173.881,275.636 171.230,275.636 171.114 C 275.636 170.023,260.477 178.880,254.182 183.650 C 242.754 192.309,231.637 207.032,228.136 218.143 C 226.811 222.351,224.549 227.873,222.090 232.909 C 220.713 235.728,218.754 242.291,217.640 247.818 C 211.893 276.331,218.358 305.098,236.069 329.824 C 239.638 334.807,239.203 335.483,231.636 336.715 C 217.212 339.064,218.624 342.607,234.896 344.890 C 239.383 345.520,240.591 346.556,239.144 348.534 C 237.561 350.700,220.553 346.721,218.838 343.784 C 215.591 338.223,218.543 334.699,228.133 332.687 C 230.674 332.154,231.882 331.748,231.710 331.486 C 231.568 331.269,230.210 329.209,228.693 326.909 C 214.085 304.754,208.087 280.641,210.647 254.364 L 210.931 251.455 209.556 253.430 C 207.972 255.706,201.222 264.204,199.300 266.342 C 198.585 267.138,195.722 270.224,192.937 273.201 C 188.954 277.459,187.850 278.858,187.762 279.761 C 187.700 280.393,187.399 282.791,187.094 285.091 C 185.405 297.804,184.998 309.097,185.947 316.909 C 186.280 319.647,186.353 322.457,186.177 325.818 C 185.913 330.870,186.052 340.908,186.483 347.870 L 186.727 351.818 230.182 351.841 C 254.082 351.854,272.655 351.812,271.455 351.748 C 256.463 350.955,245.445 348.841,245.460 346.762 C 245.474 344.897,246.385 344.648,250.782 345.308 C 258.325 346.441,264.109 346.949,271.893 347.161 L 279.967 347.381 280.097 349.418 C 280.168 350.538,280.257 330.100,280.295 304.000 L 280.364 256.545 330.636 256.545 L 380.909 256.545 381.001 178.636 L 381.093 100.727 330.728 100.727 L 280.364 100.727 280.364 53.484 C 280.364 27.501,280.264 5.982,280.143 5.666 C 279.943 5.144,272.363 5.091,197.961 5.091 L 116.000 5.091 116.000 52.909 M136.727 116.714 C 136.727 116.907,135.753 117.875,134.562 118.866 L 132.397 120.668 133.526 121.061 C 134.146 121.278,134.864 121.455,135.121 121.455 C 139.350 121.455,137.476 122.800,131.557 124.016 C 125.500 125.259,124.660 125.161,123.803 123.111 C 122.742 120.571,124.036 119.233,128.552 118.204 C 130.349 117.795,132.636 117.228,133.636 116.944 C 135.849 116.317,136.727 116.251,136.727 116.714 M127.800 201.049 C 127.610 201.225,125.573 202.197,123.273 203.207 C 120.973 204.217,116.064 206.456,112.364 208.181 C 108.664 209.907,104.491 211.839,103.091 212.474 C 92.584 217.240,68.452 229.686,52.364 238.637 C 41.952 244.429,38.025 246.666,25.636 253.859 C 21.708 256.140,21.578 256.186,18.364 256.391 C 16.564 256.506,37.392 256.628,64.648 256.663 L 114.205 256.727 113.964 249.545 C 113.471 234.894,115.949 223.597,122.478 210.727 C 124.255 207.225,125.944 204.459,127.199 203.000 C 128.771 201.171,129.214 199.733,127.800 201.049 M287.016 202.569 C 291.128 203.711,289.996 207.440,284.909 209.512 C 280.919 211.137,279.510 211.293,280.669 209.982 C 280.837 209.792,281.335 209.034,281.774 208.297 L 282.574 206.958 280.015 205.463 C 276.447 203.380,276.539 203.216,281.636 202.588 C 285.244 202.143,285.479 202.142,287.016 202.569 M116.029 312.091 L 116.000 352.000 127.282 352.000 L 138.564 352.000 138.050 351.000 C 137.481 349.894,131.924 334.746,131.347 332.727 C 131.147 332.027,130.380 329.573,129.643 327.273 C 124.629 311.628,120.270 294.576,117.791 280.909 C 116.993 276.509,116.276 272.745,116.198 272.545 C 116.121 272.345,116.044 290.141,116.029 312.091 "
       stroke="none"
       fill="#4ea8ff"
       fill-rule="evenodd"
       style="fill:#833d3b;fill-opacity:1" />
    <path
       id="path5"
       d="M127.980 103.909 L 126.727 105.273 128.091 104.020 C 128.841 103.330,129.455 102.717,129.455 102.656 C 129.455 102.378,129.147 102.640,127.980 103.909 M191.617 274.455 L 190.364 275.818 191.727 274.565 C 192.997 273.399,193.258 273.091,192.980 273.091 C 192.920 273.091,192.306 273.705,191.617 274.455 M156.812 318.182 C 156.812 318.882,156.886 319.168,156.978 318.818 C 157.069 318.468,157.069 317.895,156.978 317.545 C 156.886 317.195,156.812 317.482,156.812 318.182 M145.903 327.636 C 145.903 328.336,145.977 328.623,146.069 328.273 C 146.160 327.923,146.160 327.350,146.069 327.000 C 145.977 326.650,145.903 326.936,145.903 327.636 "
       stroke="none"
       fill="#0278dd"
       fill-rule="evenodd" />
    <path
       id="path6"
       d="M307.357 217.455 C 307.357 218.155,307.432 218.441,307.523 218.091 C 307.615 217.741,307.615 217.168,307.523 216.818 C 307.432 216.468,307.357 216.755,307.357 217.455 "
       stroke="none"
       fill="#187cde"
       fill-rule="evenodd" />
    <path
       id="path7"
       d=""
       stroke="none"
       fill="#2681df"
       fill-rule="evenodd" />
    <path
       id="path8"
       d="M274.636 347.538 C 275.386 347.616,276.614 347.616,277.364 347.538 C 278.114 347.459,277.500 347.395,276.000 347.395 C 274.500 347.395,273.886 347.459,274.636 347.538 "
       stroke="none"
       fill="#3386e0"
       fill-rule="evenodd" />
    <path
       id="path9"
       d="M215.357 267.636 C 215.357 268.336,215.432 268.623,215.523 268.273 C 215.615 267.923,215.615 267.350,215.523 267.000 C 215.432 266.650,215.357 266.936,215.357 267.636 "
       stroke="none"
       fill="#3e8be2"
       fill-rule="evenodd" />
    <path
       id="path10"
       d="M215.357 269.818 C 215.357 270.518,215.432 270.805,215.523 270.455 C 215.615 270.105,215.615 269.532,215.523 269.182 C 215.432 268.832,215.357 269.118,215.357 269.818 "
       stroke="none"
       fill="#4990e3"
       fill-rule="evenodd" />
    <path
       id="path11"
       d=""
       stroke="none"
       fill="#4a9ae4"
       fill-rule="evenodd" />
    <path
       id="path12"
       d="M244.523 191.727 L 243.455 192.909 244.636 191.841 C 245.286 191.254,245.818 190.722,245.818 190.659 C 245.818 190.378,245.518 190.626,244.523 191.727 "
       stroke="none"
       fill="#5898e5"
       fill-rule="evenodd" />
    <path
       id="path13"
       d=""
       stroke="none"
       fill="#619de6"
       fill-rule="evenodd" />
    <path
       id="path14"
       d=""
       stroke="none"
       fill="#6aa2e7"
       fill-rule="evenodd" />
    <path
       id="path15"
       d="M210.291 266.182 C 210.291 267.282,210.359 267.732,210.442 267.182 C 210.526 266.632,210.526 265.732,210.442 265.182 C 210.359 264.632,210.291 265.082,210.291 266.182 M156.468 341.636 C 156.470 342.636,156.541 343.002,156.625 342.450 C 156.708 341.897,156.706 341.079,156.620 340.631 C 156.533 340.184,156.465 340.636,156.468 341.636 "
       stroke="none"
       fill="#73a7e9"
       fill-rule="evenodd" />
    <path
       id="path16"
       d=""
       stroke="none"
       fill="#81afeb"
       fill-rule="evenodd" />
    <path
       id="path17"
       d="M185.559 333.273 C 185.561 334.273,185.632 334.639,185.715 334.086 C 185.799 333.533,185.797 332.715,185.711 332.268 C 185.624 331.820,185.556 332.273,185.559 333.273 "
       stroke="none"
       fill="#8eb8ed"
       fill-rule="evenodd" />
    <path
       id="path18"
       d=""
       stroke="none"
       fill="#96bdee"
       fill-rule="evenodd" />
    <path
       id="path19"
       d="M166.909 88.545 C 167.588 89.245,168.224 89.818,168.324 89.818 C 168.424 89.818,167.951 89.245,167.273 88.545 C 166.594 87.845,165.957 87.273,165.857 87.273 C 165.757 87.273,166.231 87.845,166.909 88.545 "
       stroke="none"
       fill="#9fc1ef"
       fill-rule="evenodd" />
    <path
       id="path20"
       d=""
       stroke="none"
       fill="#abcaf1"
       fill-rule="evenodd" />
    <path
       id="path21"
       d=""
       stroke="none"
       fill="#b3cff2"
       fill-rule="evenodd" />
    <path
       id="path22"
       d=""
       stroke="none"
       fill="#b3cef3"
       fill-rule="evenodd" />
    <path
       id="path23"
       d=""
       stroke="none"
       fill="#bbd3f4"
       fill-rule="evenodd" />
    <path
       id="path24"
       d="M274.273 347.887 C 274.623 347.978,275.195 347.978,275.545 347.887 C 275.895 347.796,275.609 347.721,274.909 347.721 C 274.209 347.721,273.923 347.796,274.273 347.887 M277.182 351.533 C 277.732 351.617,278.632 351.617,279.182 351.533 C 279.732 351.450,279.282 351.382,278.182 351.382 C 277.082 351.382,276.632 351.450,277.182 351.533 "
       stroke="none"
       fill="#c3d8f6"
       fill-rule="evenodd" />
    <path
       id="path25"
       d="M244.528 191.364 L 243.091 192.909 244.636 191.472 C 246.074 190.135,246.349 189.818,246.074 189.818 C 246.014 189.818,245.319 190.514,244.528 191.364 M215.013 267.818 C 215.016 268.818,215.086 269.184,215.170 268.631 C 215.254 268.079,215.251 267.260,215.165 266.813 C 215.079 266.366,215.010 266.818,215.013 267.818 M184.812 305.455 C 184.812 306.155,184.886 306.441,184.978 306.091 C 185.069 305.741,185.069 305.168,184.978 304.818 C 184.886 304.468,184.812 304.755,184.812 305.455 "
       stroke="none"
       fill="#cfe0f7"
       fill-rule="evenodd" />
    <path
       id="path26"
       d=""
       stroke="none"
       fill="#d7e5f8"
       fill-rule="evenodd" />
    <path
       id="path27"
       d="M124.667 208.269 C 123.859 210.016,122.860 211.939,122.446 212.541 L 121.694 213.636 122.775 212.638 C 123.369 212.088,124.158 210.779,124.528 209.728 C 124.898 208.678,125.507 207.205,125.880 206.455 C 126.254 205.705,126.465 205.091,126.348 205.091 C 126.231 205.091,125.474 206.521,124.667 208.269 M156.099 313.091 C 156.099 313.991,156.170 314.359,156.257 313.909 C 156.343 313.459,156.343 312.723,156.257 312.273 C 156.170 311.823,156.099 312.191,156.099 313.091 "
       stroke="none"
       fill="#e2ecfa"
       fill-rule="evenodd" />
    <path
       id="path28"
       d="M126.190 205.801 C 125.787 206.592,125.106 208.188,124.677 209.347 C 124.248 210.506,123.266 212.146,122.494 212.992 C 120.727 214.928,120.662 215.464,122.396 213.799 C 123.736 212.512,125.455 209.560,125.455 208.545 C 125.455 208.232,125.866 207.163,126.370 206.170 C 126.873 205.176,127.204 204.364,127.104 204.364 C 127.005 204.364,126.594 205.011,126.190 205.801 M124.448 254.909 C 124.448 255.609,124.523 255.895,124.614 255.545 C 124.706 255.195,124.706 254.623,124.614 254.273 C 124.523 253.923,124.448 254.209,124.448 254.909 M124.448 263.273 C 124.448 263.973,124.523 264.259,124.614 263.909 C 124.706 263.559,124.706 262.986,124.614 262.636 C 124.523 262.286,124.448 262.573,124.448 263.273 "
       stroke="none"
       fill="#eef4fc"
       fill-rule="evenodd" />
    <path
       id="path29"
       d="M137.622 189.639 C 137.030 190.123,136.351 190.525,136.112 190.532 C 135.874 190.540,135.584 190.699,135.469 190.886 C 135.350 191.078,135.888 191.219,136.693 191.208 C 137.928 191.190,138.190 191.039,138.568 190.128 C 139.155 188.709,138.913 188.584,137.622 189.639 M124.561 210.874 C 124.208 211.658,123.364 212.838,122.686 213.494 C 122.009 214.151,121.455 214.852,121.455 215.052 C 121.455 215.755,125.038 211.470,125.213 210.558 C 125.477 209.185,125.280 209.281,124.561 210.874 M156.812 328.000 C 156.812 328.700,156.886 328.986,156.978 328.636 C 157.069 328.286,157.069 327.714,156.978 327.364 C 156.886 327.014,156.812 327.300,156.812 328.000 "
       stroke="none"
       fill="#f1f5fc"
       fill-rule="evenodd" />
    <path
       id="path30"
       d="M139.116 189.243 C 138.745 190.424,138.244 191.295,137.882 191.391 C 137.428 191.511,137.468 191.563,138.041 191.594 C 138.772 191.634,140.428 187.943,139.911 187.426 C 139.817 187.333,139.460 188.150,139.116 189.243 M130.909 199.798 C 130.909 200.086,130.612 200.536,130.249 200.798 C 129.886 201.059,129.471 201.600,129.327 202.000 C 129.164 202.453,129.551 202.205,130.351 201.343 C 131.644 199.951,131.946 199.273,131.273 199.273 C 131.073 199.273,130.909 199.509,130.909 199.798 M126.601 206.222 C 126.420 206.700,126.150 207.987,126.000 209.082 C 125.850 210.177,125.482 211.448,125.181 211.906 C 124.693 212.653,124.694 212.717,125.199 212.524 C 125.918 212.247,126.058 211.857,126.376 209.239 C 126.519 208.057,126.793 206.791,126.984 206.423 C 127.175 206.056,127.241 205.665,127.131 205.555 C 127.020 205.444,126.782 205.745,126.601 206.222 M123.175 213.989 C 122.559 214.761,122.393 215.177,122.721 215.129 C 123.383 215.032,124.835 213.200,124.442 212.958 C 124.279 212.857,123.708 213.321,123.175 213.989 "
       stroke="none"
       fill="#f9fafd"
       fill-rule="evenodd" />
    <path
       id="path31"
       d="M166.364 88.364 C 167.145 89.164,167.866 89.818,167.966 89.818 C 168.066 89.818,167.508 89.164,166.727 88.364 C 165.946 87.564,165.225 86.909,165.125 86.909 C 165.025 86.909,165.582 87.564,166.364 88.364 M128.546 202.122 C 128.647 202.222,128.458 202.604,128.126 202.970 C 127.795 203.337,127.651 203.636,127.806 203.636 C 127.962 203.636,127.882 203.886,127.629 204.191 C 127.376 204.495,127.268 204.844,127.389 204.965 C 127.510 205.086,127.818 204.714,128.073 204.138 C 128.328 203.562,128.743 202.875,128.996 202.610 C 129.580 201.999,129.572 201.939,128.909 201.939 C 128.609 201.939,128.446 202.022,128.546 202.122 M125.501 209.377 C 125.053 211.396,121.968 215.665,121.381 215.078 C 121.271 214.968,121.082 215.134,120.962 215.447 C 120.622 216.333,121.903 215.527,123.105 214.099 C 123.655 213.445,124.205 212.926,124.326 212.947 C 124.819 213.031,125.749 210.912,125.992 209.152 C 126.336 206.648,126.081 206.766,125.501 209.377 "
       stroke="none"
       fill="#f7fafe"
       fill-rule="evenodd" />
  </g>
</svg>
