<?xml version="1.0" encoding="UTF-8" standalone="no"?>
<!-- Created with Inkscape (http://www.inkscape.org/) -->

<svg
   version="1.1"
   id="svg1"
   width="512"
   height="512"
   viewBox="0 0 512 512"
   xmlns:xlink="http://www.w3.org/1999/xlink"
   xmlns="http://www.w3.org/2000/svg"
   xmlns:svg="http://www.w3.org/2000/svg">
  <defs
     id="defs1" />
  <g
     id="g1">
    
    <!-- <path
       style="fill:#000000"
       d="M 226.98128,58.689863 323.1478,111.01576"
       id="path2" /> --> 
       <!-- //нихуя?? -->
    <path
       style="fill:#000000"
       d="m 113,89.5 10,6 7,6.5 7.5,10 5.5,8 15,14.5 -25.5,25 -1,1.5 -14.5,5.5 -12.5,3.5 -13.5,3 -8.5,-1.5 -8.5,-5 -5,-3.5 -0.5,-4.5 17,-10 10,-9 4,-8.5 6,-7 9.5,-4.5 2,-3 -1.5,-7.5 z"
       id="path3" /> <!-- голова -->
    <path
       style="fill:#000000"
       d="m 158,134 7,8.5 8,11.5 8.5,14.5 6,9.5 -41.5,33 -2.5,-16.5 -5.5,-20 -6,-15 z"
       id="path4" />  <!-- шея -->
    <path
       style="fill:#000000"
       d="m 188,177.5 5,3.5 12.5,4.5 13.5,6 19,8 -2.5,78 -22.5,4 -11,1 -8,-0.5 -7.5,-4 -31,-16 -5.5,-6.5 -6.5,-12.5 -2,-9 0.5,-9.5 3.5,-11 1.5,-4 z"
       id="path5" /> <!-- грудина -->
    <path
       style="fill:#000000"
       d="m 238,198.5 34.5,10.5 29,5.5 13.5,2 -17.5,52 -5.5,-1.5 -3,0.5 -11,1.5 -13.5,2.5 -17,3 -14,1.5 z"
       id="path6" /> <!-- живот -->
    <path
       style="fill:#000000"
       d="m 314,216 17.5,4 9.5,-1.5 14,14.5 1,3.5 3,6 -41,39 -5.5,-5.5 -3.5,-3.5 -8.5,-4 -3,-0.5 z"
       id="path7" /> <!-- жопа --> 
    <path
       style="fill:#000000"
       d="m 354.5,232.5 1,-8 4,-8 5.5,-4 1,-1 -2.5,-2.5 H 358 l -6.5,2 -9.5,7.5 -1.5,1 z"
       id="path8" />  <!-- хвост -->
    <path
       style="fill:#111111"
       d="m 358,242 7,8 4.5,10.5 V 272 l 3,10 7.5,9 5.5,6 6,9.5 6.5,8 7.5,5 17,12 6.5,4 -1.5,11.5 -0.5,18.5 2.5,20.5 -2.5,10 -2,3.5 -15.5,-1.5 -2,-4 0.5,-4.5 9,-9.5 3,-7 -0.5,-6 -0.5,-4.5 -2,-9.5 -2,-6 -4,-4 -3,-3 -3.5,-2 -6.5,-2.5 -7.5,-4 -6.5,-3 -8,-4.5 -4,-2.5 -4,-2 -4.5,-2 -6,-3 -5.5,-2.5 -6,-4 -10.5,-8 -9,-7.5 -10,-11.5 z"
       id="path9" /> <!-- задний окорочок -->
    <path
       style="fill:#000000"
       d="m 185,276 6,35 2.5,20 -3,7.5 -1,6 v 5.5 10 l 0.5,6.5 1.5,6.5 -1.5,11.5 -3,6.5 -4,2 -2,5.5 -14.5,1.5 -6,-2.5 -1,-6 5.5,-7 8.5,-2 1,-2.5 1.5,-10 -0.5,-17.5 -1,-18.5 -2.5,-14 -6,-25 -7,-23 -6.5,-13.5 z"
       id="path10" /> <!-- передний окорочок -->
  </g>
</svg>
